{"glyphs":{":":{"x_min":0,"x_max":194,"ha":194,"o":"m 176 323 q 176 294 155 274 q 134 254 105 254 q 71 254 46 276 q 20 297 20 327 q 20 361 44 382 q 68 402 102 402 q 132 402 154 379 q 176 356 176 323 z m 171 61 q 171 33 151 12 q 131 -9 102 -9 q 68 -9 42 12 q 17 34 17 67 q 17 99 41 122 q 65 145 99 145 q 131 145 153 120 q 175 94 171 61 z"},"$":{"x_min":0,"x_max":633,"ha":633,"o":"m 596 161 q 586 106 554 70 q 522 34 468 15 q 414 -4 363 -4 q 350 -4 344 -3 l 243 13 l 205 -47 q 192 -66 163 -101 q 154 -112 138 -131 l 178 -53 l 208 13 q 201 13 191 13 q 181 13 166 14 q 146 14 130 12 q 113 10 77 -1 q 65 -5 43 -13 l 60 86 q 61 96 62 104 q 62 113 62 121 q 62 181 48 299 q 44 338 34 405 q 57 361 71 335 q 114 258 146 210 q 163 185 204 134 q 216 119 238 92 l 281 207 q 257 234 243 249 q 200 295 174 319 q 106 383 82 416 q 40 474 40 534 q 40 550 43 567 q 58 646 113 694 q 168 741 251 750 q 255 751 266 751 q 300 751 361 740 q 381 737 417 728 l 428 752 q 435 770 440 803 q 441 814 444 833 q 445 815 446 784 q 447 754 447 750 q 447 745 445 735 q 445 732 443 726 l 509 723 q 534 723 568 729 q 574 730 585 733 q 579 699 577 679 q 568 613 568 581 l 575 387 q 560 417 552 434 q 527 484 508 513 q 492 545 459 591 q 448 606 428 632 l 398 509 q 436 471 456 450 q 521 383 541 356 q 570 318 586 282 q 601 245 601 205 q 601 197 601 189 q 600 183 596 161 z m 402 659 l 356 708 q 340 722 318 733 q 297 744 280 744 q 262 744 253 727 q 248 717 248 703 q 248 689 254 675 q 259 661 280 630 q 297 603 335 567 q 348 555 371 536 z m 393 29 q 397 38 397 49 q 397 65 387 85 q 382 94 373 109 q 364 124 333 155 q 323 165 304 183 l 263 66 q 279 51 288 43 q 317 18 328 14 q 340 11 348 10 q 355 8 363 8 q 374 8 381 12 q 388 16 393 29 z"},"?":{"x_min":0,"x_max":443,"ha":443,"o":"m 406 549 q 406 517 384 473 q 376 456 302 343 q 277 305 260 268 q 242 232 242 219 q 242 197 252 188 q 263 178 279 178 q 293 178 304 184 q 315 190 316 197 q 304 199 293 203 q 271 212 271 237 q 271 253 282 263 q 293 273 310 273 q 327 273 339 262 q 351 251 351 233 q 351 206 318 186 q 284 165 238 165 q 213 165 186 172 q 159 179 135 191 q 111 203 96 227 q 82 251 82 281 q 82 310 122 381 q 159 444 198 512 q 236 580 236 614 q 236 636 221 646 q 216 650 208 650 q 174 650 127 552 q 84 462 41 313 q 47 370 49 403 q 58 512 58 559 l 53 665 q 75 662 103 660 q 131 657 164 657 q 201 657 224 663 q 239 665 254 666 q 268 668 273 668 q 326 668 360 646 q 406 616 406 549 z m 274 72 q 274 41 252 18 q 230 -5 199 -5 q 165 -5 144 16 q 122 36 122 69 q 122 102 144 125 q 166 148 198 148 q 228 148 251 126 q 274 104 274 72 z"},"'":{"x_min":0,"x_max":315,"ha":315,"o":"m 282 572 q 269 544 260 529 q 231 481 200 466 q 178 455 161 451 q 144 447 126 447 q 94 447 68 463 q 50 474 42 487 l 218 665 q 207 636 207 615 q 207 589 225 578 q 238 570 261 570 q 276 570 282 572 z"},"a":{"x_min":0,"x_max":642,"ha":642,"o":"m 618 501 q 578 424 575 417 q 541 333 541 248 q 541 189 558 128 q 575 66 615 0 q 545 0 474 0 q 404 0 395 -2 q 371 -8 342 -11 q 312 -14 290 -14 q 166 -14 94 58 q 21 129 21 244 q 21 349 84 428 q 146 507 239 507 q 246 507 254 506 q 263 505 268 505 q 305 499 350 497 q 396 495 448 495 q 505 495 546 497 q 587 499 618 501 z m 417 10 q 432 13 432 55 q 432 161 370 329 q 303 509 255 491 q 242 487 242 444 q 242 336 300 174 q 363 -2 417 10 z"},"L":{"x_min":0,"x_max":549,"ha":549,"o":"m 527 510 q 508 416 502 348 q 497 280 497 168 q 497 114 505 37 q 506 23 510 0 l 32 0 q 75 51 95 144 q 115 238 115 358 q 115 552 20 672 l 527 672 q 488 653 411 525 q 340 407 279 265 q 215 116 215 52 q 215 16 235 13 q 277 6 337 95 q 385 166 443 299 q 489 405 527 510 z"},"3":{"x_min":0,"x_max":483,"ha":483,"o":"m 453 158 q 453 78 371 33 q 298 -7 200 -7 q 132 -7 81 10 q 19 31 19 70 q 19 91 34 106 q 50 122 72 122 q 95 122 112 109 q 129 96 129 73 q 129 53 114 40 q 100 27 92 28 q 95 22 99 17 q 111 10 125 10 q 173 15 195 68 q 213 111 213 175 q 213 283 155 315 q 106 342 98 329 q 138 324 171 362 q 208 405 208 499 q 208 557 193 594 q 174 642 134 642 q 124 642 108 634 q 106 633 100 629 q 115 626 121 619 q 132 606 134 583 q 134 564 119 551 q 104 538 85 538 q 66 538 52 551 q 38 564 35 583 q 33 603 46 617 q 59 631 82 640 q 105 649 135 654 q 165 658 225 658 q 313 658 376 625 q 451 586 451 514 q 451 434 380 388 q 330 356 249 344 q 208 338 177 338 l 169 332 q 169 329 180 329 q 194 329 205 329 q 299 329 356 305 q 453 264 453 158 z"},";":{"x_min":0,"x_max":196,"ha":196,"o":"m 172 282 q 172 250 149 229 q 126 208 93 208 q 62 208 42 232 q 22 256 22 288 q 22 317 44 338 q 67 358 98 358 q 130 358 151 336 q 172 314 172 282 z m 168 45 l 41 -112 q 44 -100 44 -80 q 44 -46 39 -6 q 34 33 32 50 q 29 68 29 80 q 29 116 50 136 q 71 155 104 158 q 133 158 156 133 q 179 108 179 78 q 179 59 168 45 z"},"J":{"x_min":0,"x_max":643,"ha":643,"o":"m 642 672 q 595 631 544 515 q 483 375 483 250 q 483 178 504 118 q 524 58 571 9 q 546 2 529 -3 q 432 -32 367 -62 q 302 -93 297 -95 q 260 -109 216 -109 q 210 -110 205 -110 q 133 -110 66 -55 q 0 0 0 52 q 0 72 13 93 q 31 122 57 119 q 78 119 94 104 q 109 90 109 68 q 109 48 96 34 q 83 20 62 20 q 41 20 34 30 q 27 39 24 39 q 21 40 20 38 q 19 36 19 31 q 19 22 29 12 q 39 3 61 0 q 111 -6 199 133 q 274 251 341 413 q 408 575 408 629 q 408 646 401 647 q 331 660 242 493 q 158 335 130 166 q 134 217 135 250 q 141 363 141 433 q 141 530 133 595 q 125 660 105 673 z"},"V":{"x_min":0,"x_max":696,"ha":696,"o":"m 700 672 q 694 672 643 593 q 576 490 536 386 q 479 238 479 101 q 479 90 524 44 q 539 29 569 0 l 119 0 q 147 37 160 86 q 174 135 174 187 q 174 283 134 402 q 102 496 54 584 q 14 656 -5 672 l 259 672 q 260 663 261 655 q 255 625 255 598 q 255 520 291 424 q 342 289 463 118 q 467 119 471 121 q 474 131 474 156 q 474 266 439 415 q 395 601 325 672 z"},"\"":{"x_min":0,"x_max":544,"ha":544,"o":"m 514 580 q 501 552 492 537 q 463 489 432 474 q 410 463 393 459 q 376 455 358 455 q 326 455 300 471 q 282 482 274 495 l 450 673 q 439 644 439 623 q 439 597 457 586 q 470 578 493 578 q 508 578 514 580 z m 282 572 q 269 544 260 529 q 231 481 200 466 q 178 455 161 451 q 144 447 126 447 q 94 447 68 463 q 50 474 42 487 l 218 665 q 207 636 207 615 q 207 589 225 578 q 238 570 261 570 q 276 570 282 572 z"},"7":{"x_min":0,"x_max":566,"ha":566,"o":"m 551 665 q 548 665 517 615 q 477 550 453 483 q 418 385 418 294 q 418 218 442 143 q 465 68 519 -3 l 5 -3 q 10 -3 69 69 q 144 162 204 267 q 288 415 326 565 q 336 604 336 626 q 336 653 320 653 q 306 653 287 636 q 268 619 256 599 q 214 528 167 428 q 130 350 96 267 q 82 231 68 196 q 77 259 82 325 q 86 391 86 448 q 86 535 78 607 q 76 632 69 665 z"},"S":{"x_min":0,"x_max":545,"ha":545,"o":"m 522 186 q 522 76 442 29 q 387 -3 305 -3 q 277 -3 267 -2 q 264 -2 260 0 l 27 -3 q 33 26 35 47 q 44 117 44 181 q 44 234 41 276 q 38 317 27 376 q 47 329 67 283 q 118 172 165 108 q 233 14 289 14 q 306 14 319 20 q 332 26 332 42 q 332 68 291 121 q 261 159 192 233 q 133 295 75 357 q 55 378 42 414 q 30 449 30 488 q 30 567 78 616 q 137 676 254 676 q 322 676 357 671 q 448 658 492 658 q 490 637 488 612 q 486 587 486 563 q 486 509 496 420 q 499 391 506 342 q 442 475 381 559 q 304 665 249 665 q 238 665 226 660 q 213 654 213 638 q 213 607 293 520 q 414 388 441 354 q 522 251 522 186 z"},"}":{"x_min":0,"x_max":295,"ha":295,"o":"m 287 327 q 269 310 260 300 q 233 269 233 252 q 233 233 234 205 q 235 177 235 167 q 235 119 221 91 q 204 57 149 5 q 136 -8 108 -16 q 80 -24 36 -24 q 24 -24 13 -24 q 10 -24 4 -23 q 14 -23 36 -6 q 74 22 96 73 q 128 145 128 256 q 128 273 142 301 q 146 310 157 327 q 147 343 143 352 q 128 381 128 392 q 128 516 98 598 q 76 658 42 690 q 20 711 11 711 q 15 711 18 711 q 28 711 38 712 q 78 712 112 704 q 147 697 172 672 q 208 636 221 595 q 231 562 231 503 q 231 489 230 454 q 229 418 229 396 q 229 385 258 355 q 267 345 287 327 z"},"Z":{"x_min":0,"x_max":628,"ha":628,"o":"m 620 672 q 618 672 539 546 q 445 395 387 282 q 305 121 305 53 q 305 26 317 14 q 355 53 394 93 q 448 177 512 306 q 576 435 597 503 q 596 503 586 455 q 572 390 565 334 q 554 250 554 177 q 554 128 559 84 q 564 40 577 0 l -1 0 q 2 0 77 117 q 161 249 221 369 q 300 528 300 605 q 300 641 286 659 q 283 663 278 663 q 245 663 166 497 q 87 331 63 217 q 71 273 74 309 q 86 425 86 506 q 86 562 82 600 q 79 637 69 672 z"},"x":{"x_min":0,"x_max":543,"ha":543,"o":"m 546 0 l 267 0 q 263 50 255 84 q 231 185 167 289 q 163 274 159 260 q 155 230 155 212 q 155 151 168 103 q 185 39 224 0 l 3 0 q 7 0 38 36 q 80 85 107 140 q 146 218 154 303 q 116 361 94 391 q 28 482 1 496 l 298 496 q 292 487 292 468 q 292 413 332 310 q 354 270 377 231 q 381 246 382 260 q 383 273 383 291 q 383 357 355 433 q 346 458 327 496 l 516 496 q 463 444 428 375 q 384 288 384 221 q 384 210 386 206 q 429 124 492 54 q 513 31 546 0 z"},")":{"x_min":0,"x_max":482,"ha":482,"o":"m 445 -62 l 78 -103 q 84 -103 126 -49 q 183 24 217 101 q 266 213 266 326 q 266 415 217 528 q 180 612 126 694 q 81 762 76 762 q 118 742 143 731 q 223 696 269 685 q 302 678 368 671 q 388 669 423 666 q 419 666 404 636 q 382 593 368 530 q 348 440 348 328 q 348 232 373 131 q 390 61 420 -9 q 442 -62 445 -62 z"},"&":{"x_min":0,"x_max":912,"ha":912,"o":"m 943 0 q 923 0 900 0 q 878 0 854 -1 q 763 -1 688 6 q 612 13 558 35 q 535 17 502 8 q 469 -1 447 -4 q 381 -15 319 -15 q 194 -15 122 25 q 26 79 26 202 q 26 284 72 348 q 119 412 190 412 q 177 449 177 488 q 177 567 225 616 q 284 676 401 676 q 469 676 504 671 q 595 658 639 658 q 637 637 635 612 q 633 587 633 563 q 633 509 643 420 q 646 391 653 342 q 589 475 528 559 q 451 665 396 665 q 385 665 377 661 q 356 653 356 627 q 356 570 479 432 q 546 357 661 246 q 727 183 794 124 q 833 90 900 35 q 921 17 943 0 z m 529 36 q 533 37 533 44 q 533 70 461 158 q 389 246 310 316 q 222 395 186 395 q 178 395 172 390 q 167 385 167 371 q 167 303 290 171 q 419 32 504 32 q 518 32 529 36 z"},"_":{"x_min":0,"x_max":556,"ha":556,"o":"m 556 -125 l 0 -125 l 0 -75 l 556 -75 z"},"v":{"x_min":0,"x_max":556,"ha":556,"o":"m 555 496 q 506 438 503 434 q 468 387 439 319 q 401 230 369 101 q 390 73 410 55 q 444 25 489 0 l 64 0 q 77 13 84 24 q 130 89 130 184 q 130 264 102 343 q 67 441 -1 496 l 272 496 q 256 477 248 450 q 240 424 240 396 q 240 313 296 204 q 346 107 360 110 q 361 110 364 129 q 371 177 371 230 q 371 315 358 374 q 340 454 299 496 z"},"O":{"x_min":0,"x_max":738,"ha":738,"o":"m 725 328 q 725 189 622 92 q 518 -6 375 -6 q 230 -6 125 93 q 20 192 20 334 q 20 435 69 509 q 118 583 210 634 q 250 657 290 667 q 329 677 371 677 q 511 677 618 571 q 725 465 725 328 z m 510 29 q 531 29 531 66 q 531 132 480 273 q 428 414 366 518 q 295 637 249 637 q 239 637 229 632 q 219 626 219 594 q 219 526 273 384 q 327 243 389 145 q 462 29 510 29 z"},"(":{"x_min":0,"x_max":431,"ha":431,"o":"m 399 763 q 392 763 350 719 q 295 662 259 590 q 209 490 209 383 q 209 284 254 170 q 288 84 339 1 q 381 -67 386 -67 q 350 -47 328 -37 q 259 -3 220 8 q 181 19 113 27 q 91 29 53 33 q 55 33 74 88 q 94 144 110 213 q 131 307 131 383 q 131 534 100 613 q 92 634 42 728 z"},"C":{"x_min":0,"x_max":580,"ha":580,"o":"m 576 75 q 576 35 514 10 q 453 -15 348 -15 q 205 -15 111 106 q 29 212 29 332 q 29 346 30 353 q 44 512 130 596 q 208 673 327 673 q 372 673 413 670 q 454 668 469 668 l 553 670 q 538 626 532 565 q 527 504 527 423 q 527 380 529 279 q 531 178 531 177 q 509 239 487 301 q 434 444 390 533 q 328 658 292 658 q 286 658 281 655 q 252 638 252 575 q 252 459 335 273 q 418 87 496 28 q 504 22 513 22 q 526 22 531 35 q 508 37 499 43 q 483 54 483 76 q 483 96 497 109 q 511 122 532 122 q 550 122 563 108 q 576 94 576 75 z"},"W":{"x_min":0,"x_max":905,"ha":905,"o":"m 733 137 q 733 304 775 440 q 805 537 855 615 q 892 672 898 672 l 568 672 q 624 628 663 526 q 694 446 710 339 q 723 254 723 194 q 723 175 722 168 q 720 165 718 163 q 612 315 565 440 q 530 533 530 602 q 530 628 535 650 q 540 672 543 672 l 296 672 q 339 613 363 565 q 403 465 436 383 q 440 374 440 354 q 440 260 393 149 q 367 88 350 98 q 301 130 276 224 q 250 318 250 431 q 250 498 259 562 q 268 626 283 672 l 108 672 q 78 672 53 652 q 28 632 28 603 q 28 583 40 568 q 53 554 71 554 q 90 554 104 568 q 117 583 115 601 q 111 627 99 636 q 88 642 78 648 q 81 656 96 656 q 116 656 131 641 q 151 621 151 585 q 151 545 131 500 q 120 474 94 434 q 58 377 41 323 q 24 269 24 218 q 24 123 78 62 q 132 0 204 0 q 288 0 345 57 q 393 105 421 190 q 442 254 452 339 q 460 309 464 288 q 477 220 477 157 q 477 116 473 80 q 469 43 457 0 l 831 0 q 807 23 767 84 q 755 103 733 137 z"},"A":{"x_min":0,"x_max":722,"ha":722,"o":"m 728 0 l 462 0 q 475 10 478 17 q 481 24 481 38 q 481 61 466 100 q 448 148 408 217 q 400 231 370 236 q 340 242 303 242 q 286 242 274 242 q 261 241 252 240 q 286 134 329 70 q 356 31 402 0 l -8 0 q 61 60 111 188 q 150 286 174 417 q 193 519 193 575 q 193 589 191 593 q 168 632 143 648 q 128 657 106 657 q 106 653 106 649 q 135 635 138 608 q 138 588 125 575 q 112 562 93 562 q 67 562 52 578 q 38 595 38 619 q 38 649 64 661 q 89 673 133 673 q 221 673 305 672 q 389 672 447 672 q 505 671 540 671 q 516 655 504 624 q 493 594 493 552 q 493 469 537 345 q 576 235 632 136 q 688 36 728 0 z m 388 255 q 349 333 310 412 q 261 488 213 565 q 207 547 207 489 q 207 434 214 382 q 221 330 240 273 q 243 265 310 261 q 376 257 388 255 z"},"f":{"x_min":0,"x_max":453,"ha":453,"o":"m 444 0 l 20 0 q 57 43 85 123 q 117 215 117 306 q 117 343 112 376 q 107 410 95 441 q 87 438 79 436 q 75 432 65 421 l 35 496 l 81 496 q 77 511 54 561 q 36 600 36 622 q 36 640 46 656 q 61 678 90 692 q 118 706 159 706 q 178 706 202 702 q 226 698 257 696 q 288 694 311 694 q 346 694 362 694 q 379 695 394 697 q 384 656 379 628 q 363 540 363 468 q 363 412 367 336 q 368 309 372 263 q 347 363 322 464 q 291 582 270 632 q 241 700 215 688 q 201 682 195 671 q 189 660 189 644 q 189 623 198 593 q 225 502 226 497 l 267 497 l 286 430 q 279 437 253 443 q 249 444 240 445 q 254 392 272 332 q 284 294 292 264 q 312 198 350 131 q 377 85 414 36 q 442 0 444 0 z"},"Q":{"x_min":0,"x_max":683,"ha":683,"o":"m 904 -38 q 814 -64 733 -80 q 694 -88 602 -103 q 511 -118 434 -134 q 392 -143 342 -146 q 291 -150 232 -150 q 179 -150 142 -148 q 105 -146 77 -144 q 77 -107 150 -65 q 200 -36 287 -4 q 355 21 361 21 q 319 21 273 31 q 171 53 109 112 q 20 196 20 343 q 20 431 68 511 q 116 591 201 633 q 236 651 272 659 q 308 667 344 667 q 476 667 575 569 q 674 471 674 342 q 674 246 628 177 q 583 108 492 55 q 489 53 413 19 q 373 1 369 -24 q 366 -48 410 -58 q 455 -69 531 -69 q 632 -69 776 -54 q 825 -49 904 -38 z m 447 47 q 474 54 474 111 q 474 188 430 318 q 385 447 329 543 q 270 646 238 638 q 214 631 214 575 q 214 498 256 368 q 298 237 352 141 q 411 38 447 47 z"},"w":{"x_min":0,"x_max":852,"ha":852,"o":"m 844 496 q 770 436 725 331 q 694 259 680 166 q 676 129 672 92 q 701 58 737 27 q 750 16 771 0 l 404 0 q 428 41 437 76 q 446 112 446 146 q 446 170 444 182 q 441 195 437 205 q 420 110 352 46 q 285 -17 212 -17 q 123 -17 70 44 q 24 97 24 164 q 24 240 90 332 q 155 424 155 445 q 152 471 134 484 q 117 496 100 496 q 93 496 91 495 q 88 494 90 491 q 100 484 105 479 q 115 469 115 449 q 115 431 102 419 q 89 407 70 407 q 51 407 37 420 q 23 433 23 452 q 23 481 42 492 q 60 503 90 503 q 106 503 130 500 q 153 496 156 496 q 163 495 202 495 q 240 495 286 495 q 297 495 300 495 q 302 495 306 495 q 290 469 274 394 q 258 320 258 252 q 258 179 278 130 q 297 81 342 71 q 364 66 396 120 q 433 182 433 258 q 433 317 412 371 q 388 433 334 496 q 369 496 408 496 q 447 496 503 497 q 530 497 550 496 q 569 496 580 495 q 562 469 554 438 q 546 408 546 378 q 546 292 605 192 q 624 159 665 108 q 669 135 671 170 q 673 204 673 232 q 673 350 640 434 q 629 462 606 496 z"},"-":{"x_min":0,"x_max":356,"ha":356,"o":"m 338 390 q 335 378 334 371 q 329 346 328 337 l 327 283 q 308 293 293 298 q 246 314 193 314 q 123 314 66 296 q 47 290 23 278 q 27 291 28 298 q 33 318 35 335 q 35 366 34 376 q 34 386 32 394 q 55 384 72 379 q 128 363 190 363 q 243 363 295 376 q 312 380 338 390 z"},"E":{"x_min":0,"x_max":578,"ha":578,"o":"m 548 104 q 548 70 505 40 q 453 4 362 -9 q 342 -12 323 -12 q 203 -12 116 84 q 28 181 28 318 q 28 444 87 544 q 159 666 283 666 q 299 666 318 664 q 336 662 374 661 q 412 660 455 660 q 466 660 471 660 q 480 660 484 660 q 502 660 514 660 q 525 660 534 661 q 533 661 525 617 q 512 545 506 467 q 496 341 496 188 q 477 250 458 312 q 412 452 372 540 q 316 660 282 650 q 266 646 260 624 q 253 602 253 564 q 253 499 272 416 q 290 333 298 333 q 321 333 331 365 q 338 388 338 430 q 338 451 338 461 q 337 471 335 480 q 351 442 367 405 q 424 271 424 270 q 434 241 445 213 q 422 255 376 290 q 329 326 315 317 q 312 314 312 307 q 312 263 376 163 q 444 56 485 56 q 492 56 495 58 q 503 62 502 64 q 502 65 495 66 q 482 63 470 75 q 458 87 458 105 q 458 121 465 132 q 476 150 503 150 q 523 150 534 138 q 546 125 548 104 z"},"s":{"x_min":0,"x_max":446,"ha":446,"o":"m 424 126 q 424 54 375 16 q 336 -14 283 -14 q 275 -13 271 -13 q 231 -9 180 -4 q 128 1 86 1 q 49 1 14 -3 q 20 7 23 18 q 33 53 33 110 q 33 144 30 184 q 27 224 19 285 q 28 262 33 248 q 67 163 100 121 q 130 82 160 43 q 197 0 221 0 q 232 0 240 8 q 249 15 249 26 q 249 52 188 120 q 92 227 75 250 q 14 331 14 389 q 14 448 50 474 q 86 501 150 501 q 172 501 203 497 q 234 493 270 490 q 305 487 335 487 q 375 487 423 493 q 413 457 411 449 q 404 420 404 361 q 404 327 412 271 q 414 253 420 222 q 375 321 329 392 q 269 484 233 484 q 221 484 214 477 q 208 470 208 460 q 208 432 304 331 q 364 268 385 237 q 424 183 424 126 z"},"l":{"x_min":0,"x_max":372,"ha":372,"o":"m 360 672 q 299 588 273 506 q 247 423 247 318 q 247 218 272 130 q 296 42 339 0 l 3 0 q 28 19 64 137 q 104 269 104 370 q 104 458 84 524 q 64 590 16 672 z"},"8":{"x_min":0,"x_max":636,"ha":636,"o":"m 611 165 q 611 73 513 28 q 435 -8 314 -8 q 201 -8 125 32 q 34 80 34 172 q 34 272 158 314 q 199 328 283 336 q 259 336 222 344 q 152 359 107 392 q 45 437 45 510 q 45 593 134 634 q 206 667 314 667 q 433 667 503 639 q 598 601 598 515 q 598 422 476 370 q 436 353 354 337 q 379 337 420 329 q 498 314 544 283 q 611 238 611 165 z m 317 661 q 290 661 274 614 q 259 568 259 505 q 259 440 274 392 q 289 344 315 344 q 342 344 356 388 q 370 431 370 495 q 370 564 356 612 q 342 661 317 661 z m 313 -3 q 339 -3 356 52 q 372 108 372 179 q 372 245 357 291 q 342 337 313 337 q 284 337 269 292 q 254 246 254 181 q 254 111 270 54 q 287 -3 313 -3 z"},"\\":{"x_min":0,"x_max":648,"ha":648,"o":"m 652 -3 l 353 -3 q 346 31 341 54 q 307 192 248 308 q 221 360 195 413 q 164 471 123 523 q 106 546 83 571 q 64 591 4 648 l 324 648 q 327 595 331 562 q 343 467 369 396 q 403 296 410 279 q 436 219 486 153 q 530 94 595 40 q 616 22 652 -3 z"},"e":{"x_min":0,"x_max":528,"ha":528,"o":"m 510 333 q 510 276 467 237 q 424 198 365 198 q 312 198 275 230 q 263 240 249 262 q 264 249 270 244 q 281 235 291 235 q 295 235 304 237 q 312 239 316 248 q 321 258 321 272 q 321 325 281 400 q 241 476 210 476 q 205 476 200 473 q 181 461 181 425 q 181 339 268 186 q 354 33 396 33 q 408 33 420 38 q 431 42 428 48 q 428 50 424 52 q 402 52 391 64 q 380 76 380 93 q 380 112 395 125 q 410 138 428 138 q 446 138 460 126 q 473 115 473 98 q 473 56 407 20 q 341 -17 274 -17 q 160 -17 90 57 q 20 131 20 239 q 20 348 104 425 q 188 502 298 502 q 385 502 444 461 q 510 415 510 333 z"},"b":{"x_min":0,"x_max":639,"ha":639,"o":"m 619 301 q 619 186 561 102 q 499 12 391 -8 q 370 -11 356 -11 q 322 -7 291 -4 q 260 0 224 0 l 4 0 q 10 0 36 33 q 74 82 97 154 q 130 259 130 400 q 130 479 106 539 q 83 599 31 672 l 463 672 q 420 635 375 563 q 338 504 317 455 q 313 440 310 425 q 329 451 376 472 q 422 494 468 494 q 533 494 572 453 q 619 403 619 301 z m 361 445 q 318 458 270 312 q 221 167 221 66 q 221 17 237 13 q 268 4 327 148 q 386 293 386 385 q 386 438 361 445 z"},"%":{"x_min":0,"x_max":871,"ha":871,"o":"m 830 251 q 849 212 849 169 q 849 120 825 78 q 801 36 757 8 q 734 -5 711 -12 q 688 -18 664 -18 q 655 -17 650 -17 q 645 -16 621 -14 q 597 -11 585 -11 l 134 -11 q 186 38 222 80 q 258 123 298 184 q 337 244 357 284 q 381 330 403 393 q 424 446 432 470 q 447 512 447 543 q 447 559 445 568 q 437 610 401 639 q 380 656 333 663 q 318 665 289 666 q 306 655 316 647 q 378 596 387 540 q 390 519 390 499 q 390 438 360 391 q 330 344 273 323 q 245 312 210 312 q 144 312 90 354 q 35 397 23 462 q 21 471 20 480 q 19 488 19 499 q 19 555 52 602 q 85 649 140 672 q 155 678 170 680 q 185 683 203 683 q 216 683 240 681 q 264 679 275 679 q 301 679 324 676 q 392 667 403 667 l 800 666 q 740 632 694 596 q 647 559 616 522 q 586 484 557 440 q 547 425 503 353 q 434 243 423 153 q 422 144 422 134 q 421 125 421 120 q 421 96 426 78 q 432 61 448 43 q 473 16 511 4 q 537 -4 568 -4 q 577 -4 586 -3 q 589 -3 593 -2 q 573 9 562 17 q 492 68 478 138 q 475 152 475 167 q 475 218 506 268 q 537 317 588 339 q 624 355 665 355 q 717 355 762 328 q 806 300 830 251 z m 744 39 q 719 126 694 182 q 673 231 630 303 q 615 330 594 330 q 587 330 583 328 q 566 321 566 298 q 566 287 569 278 q 591 200 621 139 q 647 87 694 18 q 700 12 703 10 q 715 1 724 1 q 730 1 733 3 q 746 13 746 30 q 746 33 744 39 z m 284 372 q 267 456 240 521 q 223 562 177 643 q 171 652 160 658 q 150 663 140 659 q 134 657 130 650 q 123 639 126 626 q 143 538 166 474 q 190 411 231 356 q 241 343 248 336 q 256 330 266 330 q 272 330 275 332 q 286 339 286 355 q 286 360 284 372 z"},"m":{"x_min":0,"x_max":925,"ha":925,"o":"m 906 75 q 906 32 838 4 q 780 -20 723 -20 q 637 -20 600 20 q 575 47 575 86 q 576 94 576 97 q 586 151 657 323 q 687 396 687 426 q 687 449 678 462 q 668 475 647 475 q 594 475 556 402 q 519 329 519 214 q 519 127 534 82 q 548 36 586 0 l 398 0 q 401 17 401 38 q 401 153 338 320 q 274 487 243 472 q 224 462 224 410 q 224 335 258 220 q 292 104 350 0 l 23 0 q 51 38 65 64 q 108 146 108 225 q 108 320 58 410 q 42 440 8 481 l 256 481 q 295 481 374 478 q 452 474 481 474 q 528 474 559 476 q 590 478 642 486 q 695 495 737 495 q 837 495 875 446 q 898 416 898 365 q 898 330 875 276 q 852 223 829 171 q 799 101 789 50 q 785 29 798 18 q 811 6 825 9 q 833 11 837 12 q 851 17 858 24 q 861 27 861 32 q 861 33 861 34 q 839 41 832 52 q 825 62 825 76 q 825 90 839 103 q 853 116 869 116 q 886 116 896 105 q 906 94 906 75 z"},",":{"x_min":0,"x_max":199,"ha":199,"o":"m 184 73 q 184 41 171 16 q 158 -9 132 -37 q 120 -51 94 -70 q 86 -76 70 -87 q 81 -73 87 -64 q 105 -38 113 -20 l 128 17 q 118 13 112 12 q 93 7 83 8 q 53 8 33 30 q 13 52 13 83 q 13 118 40 140 q 67 161 105 161 q 139 161 162 136 q 184 112 184 73 z"},"n":{"x_min":0,"x_max":649,"ha":649,"o":"m 639 345 q 616 273 543 129 q 512 68 503 26 q 499 9 511 -1 q 520 -8 528 -7 q 565 2 557 23 q 554 25 551 25 q 538 29 533 55 q 531 72 544 88 q 556 103 577 103 q 598 103 609 92 q 620 81 618 63 q 613 18 550 -6 q 502 -24 439 -24 q 369 -24 334 7 q 299 38 299 91 q 299 135 330 213 q 340 239 387 344 q 419 416 419 438 q 419 456 404 456 q 390 456 362 434 q 335 413 313 385 q 295 363 282 335 q 269 307 263 281 q 242 189 242 119 q 242 22 274 0 l 21 0 q 83 107 90 123 q 124 196 124 263 q 124 273 124 279 q 123 285 123 288 q 116 372 101 410 q 90 438 47 496 l 378 496 q 365 485 357 474 q 349 462 332 420 q 354 437 391 460 q 467 508 525 508 q 534 507 538 507 q 599 501 625 461 q 645 431 645 387 q 645 374 644 364 q 642 353 639 345 z"},"h":{"x_min":0,"x_max":593,"ha":593,"o":"m 573 384 q 565 334 494 165 q 463 92 463 62 q 463 33 483 24 q 487 22 493 21 q 498 20 502 20 q 514 20 523 26 q 525 29 527 33 q 506 36 499 44 q 492 53 492 67 q 492 91 508 102 q 524 113 536 110 q 554 108 560 94 q 566 80 564 68 q 560 42 519 16 q 471 -14 413 -14 q 323 -14 284 35 q 259 66 259 105 q 259 125 267 156 q 269 166 276 189 q 283 212 311 278 q 364 403 364 426 q 364 437 357 438 q 310 446 263 354 q 211 252 211 113 q 211 68 235 30 q 243 17 260 0 l 5 0 q 8 0 31 42 q 62 100 81 168 q 108 267 108 375 q 108 488 85 551 q 70 591 14 672 l 431 672 q 379 623 342 561 q 299 489 266 385 q 301 424 324 443 q 396 502 458 502 q 477 502 491 498 q 505 495 522 485 q 547 470 560 446 q 574 423 574 396 q 574 388 573 384 z"},"z":{"x_min":0,"x_max":538,"ha":538,"o":"m 535 496 q 427 378 330 234 q 225 79 225 26 q 225 9 239 6 q 262 1 316 71 q 362 130 420 228 q 471 314 508 386 q 492 339 485 309 q 461 214 461 142 q 461 98 468 64 q 476 30 495 0 l 14 0 q 53 52 75 84 q 143 181 175 246 q 220 337 233 365 q 267 441 267 471 q 267 488 257 491 q 228 499 148 354 q 84 238 47 145 q 53 189 56 216 q 65 299 65 361 q 65 421 53 464 q 49 478 40 496 z"},"B":{"x_min":0,"x_max":744,"ha":744,"o":"m 723 228 q 723 109 649 47 q 583 -8 477 -8 q 442 -8 416 -4 q 390 1 320 4 q 250 6 156 6 q 85 6 51 4 q 17 3 8 0 q 18 0 40 22 q 78 59 100 128 q 132 226 132 378 q 132 498 86 595 q 71 627 40 668 q 91 668 231 672 q 371 676 458 676 q 536 676 589 638 q 642 599 642 534 q 642 469 590 417 q 554 381 494 350 q 470 337 447 324 q 450 321 530 346 q 578 361 610 361 q 629 361 644 357 q 686 344 706 306 q 723 274 723 228 z m 488 3 q 518 17 518 90 q 518 158 491 215 q 460 281 408 288 q 400 289 396 289 q 378 289 370 288 q 368 288 364 286 l 399 313 q 424 334 424 387 q 424 468 375 561 q 326 654 282 647 q 272 646 266 630 q 260 615 260 592 q 260 514 306 364 q 351 214 402 109 q 460 -10 488 3 z"},"K":{"x_min":0,"x_max":691,"ha":691,"o":"m 700 672 q 657 643 575 576 q 516 528 442 462 q 421 441 401 421 q 425 434 454 440 q 483 445 510 445 q 575 445 615 414 q 647 389 647 350 q 647 293 612 208 q 559 80 550 48 q 548 40 548 37 q 548 23 560 13 q 573 3 589 3 q 609 3 627 18 q 632 23 632 29 q 632 30 631 31 q 628 32 624 31 q 613 28 606 28 q 591 28 584 38 q 576 47 576 61 q 576 79 590 94 q 604 109 624 109 q 642 109 656 98 q 669 86 669 68 q 669 20 600 -7 q 560 -23 505 -29 q 499 -30 483 -30 q 422 -30 381 -10 q 321 20 321 86 q 322 95 322 100 q 325 132 336 173 q 342 196 348 221 q 355 246 377 289 q 417 369 417 387 q 417 400 409 405 q 387 420 334 351 q 271 268 271 151 q 271 79 295 0 l 12 0 q 77 60 110 160 q 139 248 139 353 q 139 467 107 558 q 75 650 27 672 l 455 672 q 429 637 414 615 q 368 546 352 500 q 327 427 313 374 q 305 344 302 320 q 339 372 371 411 q 397 443 420 466 q 478 527 500 606 q 507 632 510 672 z"},"R":{"x_min":0,"x_max":771,"ha":771,"o":"m 765 0 l 503 0 q 503 101 464 180 q 437 235 387 285 q 332 340 330 344 q 332 348 333 349 q 336 352 337 351 q 361 329 378 320 q 395 311 408 311 q 423 311 430 326 q 438 340 438 366 q 438 444 391 550 q 344 657 305 648 q 285 643 275 618 q 265 593 265 553 q 265 442 326 279 q 391 106 480 0 l 27 0 q 30 0 55 36 q 89 85 109 138 q 138 216 138 298 q 138 384 109 469 q 75 570 0 670 q 57 668 138 666 q 218 663 260 663 q 303 663 354 670 q 406 677 430 679 q 453 681 462 681 q 470 681 474 681 q 566 681 623 624 q 685 562 695 467 q 695 404 656 347 q 621 296 575 278 q 534 263 498 263 q 449 263 400 298 q 383 310 380 304 q 408 282 425 271 q 478 238 519 238 q 527 239 531 239 q 540 240 556 240 q 660 240 723 120 q 744 80 765 0 z"},"T":{"x_min":0,"x_max":576,"ha":576,"o":"m 562 -2 l 27 -2 q 32 -2 74 76 q 127 174 161 279 q 209 428 209 563 q 209 584 209 605 q 206 634 204 648 q 203 663 197 663 q 176 663 118 520 q 61 377 27 244 q 31 296 33 327 q 39 422 39 480 q 39 514 32 580 q 25 646 25 659 q 25 672 28 672 l 556 672 q 538 608 533 569 q 525 511 525 448 q 525 400 528 354 q 531 309 540 246 q 532 274 524 302 q 499 394 471 474 q 431 589 391 652 q 385 661 380 661 q 373 661 369 640 q 365 620 365 586 q 365 500 384 392 q 404 283 446 181 q 494 63 562 -2 z"},"P":{"x_min":0,"x_max":669,"ha":669,"o":"m 656 438 q 656 376 612 319 q 577 274 553 268 q 536 260 525 256 q 490 244 455 244 q 418 244 388 257 q 350 273 322 309 l 366 277 q 377 272 389 272 q 418 272 418 324 q 418 408 362 536 q 305 664 271 648 q 236 631 236 554 q 236 433 311 260 q 390 78 486 0 l 15 0 q 35 6 71 81 q 118 180 118 293 q 118 376 93 460 q 64 557 2 653 q 27 651 68 650 q 110 648 140 648 q 178 648 209 650 q 240 652 260 658 q 295 668 327 672 q 359 676 391 676 q 512 676 584 610 q 656 544 656 438 z"},"t":{"x_min":0,"x_max":404,"ha":404,"o":"m 404 495 q 342 473 300 396 q 259 318 259 242 q 259 158 282 94 q 306 31 360 0 l 27 0 q 53 39 65 70 q 104 165 104 282 q 104 386 53 451 q 36 472 1 495 q 62 495 174 568 q 280 637 360 721 q 344 693 337 675 q 313 618 313 576 q 313 559 315 551 q 323 511 364 499 q 377 496 404 495 z"},"M":{"x_min":0,"x_max":1019,"ha":1019,"o":"m 1010 668 q 963 634 924 524 q 880 399 880 260 q 880 159 927 69 q 942 39 975 -2 l 579 -2 q 644 50 674 135 q 698 204 698 290 q 698 388 672 469 q 668 475 664 482 q 671 449 671 410 q 671 292 629 199 q 577 85 485 85 q 382 85 317 202 q 274 279 244 420 q 219 538 214 538 q 208 538 208 504 q 208 439 227 343 q 251 224 289 140 q 337 34 402 0 l 2 0 q 103 174 124 215 q 165 297 180 370 q 194 442 194 565 q 194 598 164 626 q 135 655 113 655 q 106 655 103 650 q 118 641 132 628 q 145 614 145 596 q 145 571 129 557 q 113 543 90 543 q 66 543 48 560 q 31 578 31 604 q 31 632 54 652 q 78 671 110 671 q 179 671 266 671 q 354 671 434 672 q 515 672 570 673 q 544 642 526 550 q 507 457 507 360 q 507 279 522 230 q 537 182 568 182 q 610 182 632 248 q 651 305 651 396 q 651 480 634 560 q 618 640 593 673 z"},"g":{"x_min":0,"x_max":549,"ha":549,"o":"m 542 -60 l 263 -168 q 227 -182 185 -182 q 130 -182 93 -160 q 51 -135 51 -91 q 51 -73 67 -31 q 72 -17 84 9 q 108 4 122 2 q 170 -6 193 -6 q 222 -6 266 4 q 294 10 305 14 q 280 -1 250 -54 q 221 -108 221 -140 q 221 -163 240 -163 q 292 -163 323 -106 q 361 -36 361 94 q 361 113 361 121 q 360 130 360 134 q 345 109 332 97 q 292 60 233 60 q 213 60 191 64 q 169 68 144 78 q 88 102 53 161 q 18 220 18 291 q 18 372 62 427 q 87 459 120 476 q 131 483 148 488 q 165 494 181 494 q 216 494 244 473 q 279 447 306 388 q 303 417 301 433 q 293 480 280 496 l 533 496 q 511 443 500 409 q 467 306 467 228 q 467 155 504 41 q 516 3 542 -60 z m 334 112 q 343 116 347 130 q 351 144 351 167 q 351 254 308 361 q 261 478 210 478 q 190 478 190 435 q 190 352 244 222 q 298 92 334 112 z"},"j":{"x_min":0,"x_max":344,"ha":344,"o":"m 245 596 q 245 565 224 544 q 203 523 172 523 q 137 523 111 545 q 85 567 85 600 q 85 632 110 656 q 134 679 168 679 q 200 679 222 654 q 245 630 245 596 z m 332 496 q 292 452 261 372 q 227 284 227 204 q 227 160 236 126 q 246 93 270 65 q 242 39 226 23 q 176 -26 148 -62 q 113 -108 56 -135 q -1 -162 -57 -162 q -96 -162 -122 -148 q -149 -133 -156 -103 q -161 -88 -146 -72 q -132 -57 -113 -57 q -95 -57 -82 -68 q -68 -78 -68 -95 q -68 -113 -79 -121 q -93 -126 -108 -131 q -118 -138 -107 -144 q -99 -147 -90 -147 q -75 -147 -57 -140 q -54 -139 -49 -136 q 3 -103 46 25 q 89 153 89 278 q 89 357 71 409 q 50 469 7 496 z"},"i":{"x_min":0,"x_max":374,"ha":374,"o":"m 308 607 q 308 567 280 540 q 252 513 212 513 q 173 513 146 542 q 120 572 120 614 q 120 652 150 678 q 181 703 222 703 q 259 703 284 674 q 308 646 308 607 z m 372 0 l 4 0 q 57 34 84 102 q 111 171 111 250 q 111 327 88 394 q 66 461 27 496 l 361 496 q 311 448 282 362 q 259 294 259 243 q 259 153 315 68 q 333 40 372 0 z"},"y":{"x_min":0,"x_max":548,"ha":548,"o":"m 544 496 q 503 425 485 360 q 467 295 467 243 q 467 170 496 112 q 505 93 526 68 q 459 62 395 -2 q 354 -44 314 -86 q 254 -127 222 -143 q 160 -173 98 -173 q 50 -173 20 -152 q -10 -132 -10 -105 q -10 -89 2 -78 q 13 -66 29 -66 q 46 -66 58 -76 q 71 -87 69 -103 q 69 -139 52 -138 q 35 -138 31 -137 q 27 -141 29 -145 q 32 -153 40 -156 q 48 -159 58 -159 q 62 -160 70 -160 q 136 -160 218 -43 q 301 74 323 203 q 295 149 273 123 q 207 43 130 43 q 119 43 113 44 q 21 54 21 132 q 21 163 43 225 q 100 385 108 433 q 110 445 110 450 q 110 468 93 478 q 84 484 72 484 q 59 484 51 475 q 63 472 68 468 q 85 456 85 434 q 85 423 72 413 q 60 403 46 403 q 32 403 23 410 q 10 420 10 438 q 10 473 71 491 q 115 504 164 504 q 222 504 257 477 q 292 450 292 406 q 292 395 289 381 q 277 326 256 263 q 215 138 215 122 q 215 106 226 106 q 266 106 308 198 q 350 289 350 382 q 350 417 343 446 q 336 475 320 497 z"},"@":{"x_min":0,"x_max":783,"ha":783,"o":"m 752 398 q 762 355 762 320 q 762 249 720 212 q 684 180 612 168 q 604 166 596 166 q 589 166 585 166 q 550 166 507 189 q 473 207 458 212 q 416 193 378 193 q 316 193 276 238 q 235 283 235 340 q 235 392 266 432 q 298 471 345 471 q 354 471 365 469 q 376 467 398 466 q 421 465 449 465 q 486 465 502 466 q 519 466 534 468 q 524 448 514 429 q 498 390 498 350 q 498 320 506 290 q 515 260 536 225 q 544 208 564 198 q 585 188 610 188 q 636 188 654 201 q 671 214 674 244 q 674 250 675 260 q 676 269 676 279 q 676 411 579 519 q 479 631 353 631 q 310 631 265 614 q 176 579 130 510 q 88 447 88 366 q 88 230 190 123 q 298 9 456 9 q 470 9 477 9 q 486 10 490 10 q 466 2 438 -2 q 411 -6 383 -6 q 259 -6 153 65 q 43 139 19 249 q 12 278 12 310 q 12 411 82 501 q 148 585 252 631 q 315 658 385 658 q 512 658 620 584 q 728 511 752 398 z m 433 220 q 440 221 440 243 q 440 294 408 382 q 376 469 352 460 q 345 457 345 437 q 345 382 376 298 q 406 214 433 220 z"},".":{"x_min":0,"x_max":189,"ha":189,"o":"m 176 84 q 176 52 154 28 q 131 5 99 5 q 63 5 38 28 q 14 50 14 85 q 14 118 39 140 q 64 162 98 162 q 130 162 153 139 q 176 116 176 84 z"},"p":{"x_min":0,"x_max":610,"ha":610,"o":"m 588 264 q 588 382 518 448 q 453 509 351 509 q 331 509 298 504 q 264 500 231 496 l 12 496 q 16 496 40 455 q 73 399 93 332 q 122 235 122 129 q 122 20 89 -48 q 65 -97 27 -122 q 4 -137 -7 -137 q 48 -121 71 -116 q 119 -105 161 -105 q 219 -105 285 -121 q 434 -157 475 -157 q 500 -157 525 -149 q 529 -148 536 -144 q 452 -144 392 -84 q 337 -30 291 87 q 260 160 243 247 q 226 334 226 405 q 226 446 232 467 q 239 488 252 485 q 292 476 334 352 q 375 229 375 134 q 375 99 368 79 q 362 59 347 54 q 331 48 316 72 q 302 95 302 99 q 307 66 336 44 q 364 23 404 23 q 478 23 533 88 q 588 154 588 264 z"},"X":{"x_min":0,"x_max":710,"ha":710,"o":"m 706 0 q 691 -1 677 -3 q 646 -4 594 -4 q 500 -4 444 -4 q 389 -3 334 -1 q 366 12 366 64 q 366 112 341 176 q 313 247 253 342 q 246 314 243 295 q 233 238 233 186 q 233 124 248 75 q 264 26 304 0 l -3 0 q -2 0 53 71 q 121 159 163 222 q 226 316 239 361 q 241 371 188 451 q 146 515 88 596 q 34 672 33 672 l 396 672 q 390 671 376 652 q 363 632 363 597 q 363 558 382 503 q 406 436 455 351 q 462 354 470 357 q 490 394 490 462 q 490 517 477 564 q 461 621 424 672 l 685 672 q 684 672 627 590 q 563 498 523 430 q 467 337 474 318 q 511 232 569 148 q 639 47 706 0 z"},"*":{"x_min":0,"x_max":286,"ha":286,"o":"m 249 590 l 174 550 l 182 452 l 127 518 l 48 468 l 101 540 l 34 584 l 131 584 l 178 667 l 178 584 z"},"Y":{"x_min":0,"x_max":642,"ha":642,"o":"m 646 643 q 581 557 544 442 q 507 326 507 218 q 507 143 526 86 q 546 28 585 0 l 67 -2 q 164 49 239 130 q 295 190 329 253 q 341 280 354 308 q 316 266 262 232 q 194 189 143 189 q 100 189 62 217 q 12 254 12 317 q 12 397 82 474 q 153 550 153 597 q 153 620 140 631 q 127 642 110 642 q 87 642 89 630 q 103 628 108 622 q 118 611 121 589 q 123 567 108 554 q 94 540 72 540 q 53 540 40 554 q 26 567 26 587 q 26 629 82 653 q 128 673 186 673 q 246 673 301 644 q 371 607 371 543 q 371 507 318 411 q 264 315 264 293 q 264 282 272 278 q 279 274 286 274 q 331 274 382 372 q 432 469 432 572 q 432 585 432 601 q 431 617 424 643 z"},"c":{"x_min":0,"x_max":447,"ha":447,"o":"m 451 7 l 295 -17 q 275 -20 255 -20 q 157 -20 92 43 q 18 114 18 242 q 18 250 18 254 q 18 335 75 410 q 142 498 240 498 q 246 498 254 497 q 263 496 268 496 q 275 495 325 494 q 375 494 425 494 l 415 97 q 398 162 370 240 q 335 340 301 407 q 261 487 237 483 q 212 480 212 436 q 212 394 234 322 q 251 265 280 198 q 314 112 326 93 q 379 7 451 7 z"},"!":{"x_min":0,"x_max":532,"ha":532,"o":"m 498 778 q 443 707 414 666 q 386 625 352 565 q 322 512 290 443 q 288 439 203 243 q 200 246 198 242 q 198 370 153 527 q 134 592 81 698 q 64 733 33 790 q 43 789 61 788 q 79 787 87 787 q 105 787 118 788 q 131 789 143 793 q 179 806 195 811 q 221 820 240 822 q 260 824 275 826 q 290 827 305 827 q 314 827 324 827 q 327 827 343 824 q 359 820 383 808 q 407 795 419 792 q 443 785 459 782 q 475 778 498 778 z m 278 77 q 274 42 250 20 q 227 -3 193 -3 q 151 -3 122 25 q 93 53 93 95 q 93 132 122 156 q 152 181 192 181 q 227 181 253 153 q 279 125 279 89 q 279 81 278 77 z"},"/":{"x_min":0,"x_max":665,"ha":665,"o":"m 628 648 q 627 648 592 607 q 547 553 514 510 q 465 445 437 396 q 371 284 369 279 q 339 220 328 153 q 323 129 323 101 q 323 60 335 25 q 339 13 348 -3 l 49 -3 q 50 -3 82 43 q 123 102 157 159 q 207 242 234 308 q 257 360 280 414 q 302 467 311 523 q 313 533 314 553 q 315 573 315 574 q 315 587 314 604 q 312 621 308 648 z"},"[":{"x_min":0,"x_max":406,"ha":406,"o":"m 399 763 q 354 747 329 733 q 253 690 218 625 q 209 608 205 585 q 201 562 201 536 q 201 514 205 462 q 209 410 209 383 q 209 355 208 310 q 206 264 206 263 q 206 192 214 158 q 222 124 237 98 q 279 25 352 -40 q 365 -51 386 -67 q 350 -47 328 -37 q 259 -3 220 8 q 181 19 113 27 q 91 29 53 33 q 54 57 57 97 q 60 137 64 232 q 68 327 68 384 q 68 490 62 572 q 57 655 42 728 z"},"6":{"x_min":0,"x_max":688,"ha":688,"o":"m 663 268 q 663 202 631 140 q 583 47 481 9 q 451 -2 421 -7 q 391 -12 363 -12 q 223 -12 120 99 q 24 202 24 320 q 24 491 141 586 q 239 665 372 665 q 432 665 476 646 q 519 627 532 593 q 534 585 534 582 q 534 565 520 552 q 507 538 490 538 q 470 538 456 549 q 441 560 441 579 q 441 604 456 623 q 458 626 463 630 q 459 638 436 648 q 412 657 385 657 q 357 657 334 646 q 311 635 296 610 q 281 586 275 555 q 269 524 269 491 q 269 442 280 385 q 283 366 291 338 q 306 401 354 442 q 401 482 467 482 q 479 482 486 481 q 565 472 614 411 q 663 350 663 268 z m 480 110 q 460 182 438 240 q 417 299 396 335 q 379 363 364 376 q 348 390 335 390 q 317 390 306 367 q 296 344 296 312 q 296 298 299 283 q 306 239 336 168 q 365 98 396 58 q 431 9 456 9 q 470 9 478 26 q 486 43 486 67 q 486 89 480 110 z"},"r":{"x_min":0,"x_max":551,"ha":551,"o":"m 550 298 q 548 237 528 213 q 495 173 423 173 q 354 173 322 214 q 298 244 298 285 q 298 327 323 379 q 348 431 348 444 q 348 461 332 472 q 313 485 280 449 q 243 408 243 348 q 243 258 294 155 q 349 45 426 0 l 26 0 q 57 38 72 65 q 118 148 118 241 q 118 318 89 381 q 64 436 8 496 l 244 496 q 239 458 238 438 q 237 418 237 396 q 272 473 323 508 q 365 537 426 537 q 477 537 514 512 q 552 488 552 450 q 552 445 550 435 q 545 410 505 314 q 491 280 493 262 q 493 245 509 242 q 511 242 518 241 q 542 247 548 273 q 550 281 550 298 z"},"2":{"x_min":0,"x_max":543,"ha":543,"o":"m 516 485 q 516 433 492 382 q 473 342 445 313 q 326 196 296 165 q 253 121 253 91 q 253 85 254 81 q 260 45 289 26 q 318 7 355 7 q 392 7 418 25 q 422 28 410 40 q 395 55 398 70 q 407 117 448 117 q 465 117 476 104 q 486 91 490 70 q 496 38 450 13 q 411 -8 373 -8 q 340 -8 297 -4 q 201 5 168 5 l 31 3 q 60 46 76 72 q 124 149 150 203 q 196 296 230 401 q 258 488 278 580 q 280 588 280 604 q 280 620 276 630 q 273 640 264 648 q 254 656 236 635 q 219 614 205 585 q 174 520 139 412 q 111 327 91 251 q 82 215 73 180 q 75 215 76 238 q 85 394 85 453 q 85 509 83 558 q 81 607 78 652 q 96 650 122 648 q 149 647 160 647 q 172 647 200 650 q 229 654 247 654 q 272 658 296 662 q 321 665 336 665 q 345 665 361 663 q 432 652 474 605 q 516 558 516 485 z"},"{":{"x_min":0,"x_max":295,"ha":295,"o":"m 291 -23 q 285 -23 276 -23 q 268 -23 256 -24 q 222 -24 193 -18 q 164 -12 146 5 q 93 56 76 88 q 60 121 60 167 q 60 177 61 205 q 62 233 62 252 q 62 268 35 299 q 26 309 8 327 q 28 345 37 355 q 66 385 66 396 q 66 418 65 454 q 64 490 64 504 q 64 562 75 599 q 86 636 123 672 q 146 695 184 704 q 222 712 258 712 q 267 712 277 712 q 280 712 284 711 q 275 711 254 691 q 220 659 198 599 q 167 515 167 392 q 167 380 153 353 q 149 344 138 327 q 148 311 152 302 q 167 272 167 256 q 167 146 199 74 q 222 22 259 -6 q 281 -23 291 -23 z"},"9":{"x_min":0,"x_max":635,"ha":635,"o":"m 613 335 q 613 239 575 170 q 537 100 455 45 q 420 22 370 8 q 320 -5 270 -5 q 200 -5 151 20 q 102 45 102 90 q 102 114 120 126 q 137 137 155 137 q 173 134 188 124 q 202 113 202 96 q 202 65 179 49 q 172 44 155 39 q 171 29 188 20 q 230 5 263 5 q 274 5 279 6 q 344 15 379 62 q 414 109 414 189 q 414 223 400 275 q 396 292 385 322 q 373 292 363 276 q 331 225 284 204 q 238 182 194 182 q 114 182 62 253 q 15 318 15 403 q 15 471 52 528 q 90 585 157 622 q 224 659 297 659 q 423 659 518 560 q 613 461 613 335 z m 352 285 q 364 289 370 302 q 375 315 375 335 q 375 413 310 534 q 245 655 212 640 q 194 632 194 592 q 194 511 253 390 q 312 270 352 285 z"}," ":{"x_min":0,"x_max":710,"ha":710,"o":""},"I":{"x_min":0,"x_max":484,"ha":484,"o":"m 476 0 l 11 0 q 79 54 111 142 q 143 229 143 340 q 143 451 111 543 q 76 644 18 672 l 463 672 q 389 598 358 517 q 328 436 328 325 q 328 216 364 134 q 400 51 476 0 z"},"H":{"x_min":0,"x_max":796,"ha":796,"o":"m 797 672 q 737 603 697 507 q 653 401 653 279 q 653 194 667 145 q 689 67 753 7 q 719 4 664 2 q 610 0 519 0 q 436 0 366 0 q 297 1 243 2 q 308 49 386 168 q 458 278 458 313 q 458 320 453 320 q 406 320 314 210 q 218 95 218 20 q 218 6 220 0 q 202 0 155 0 q 108 0 67 0 q 44 0 30 0 q 15 0 9 0 q 4 0 -1 0 l -2 1 q 80 97 120 219 q 155 324 155 433 q 155 525 132 592 q 110 658 78 672 l 553 674 q 448 540 394 433 q 351 348 351 309 q 351 292 360 292 q 427 292 507 426 q 584 555 584 641 q 584 661 578 673 z"},"4":{"x_min":0,"x_max":680,"ha":680,"o":"m 658 663 q 642 638 626 614 q 580 545 553 475 q 512 368 512 259 q 537 256 561 251 q 610 240 610 197 q 609 185 606 180 q 596 162 572 162 q 556 162 544 172 q 531 183 531 198 q 531 216 545 226 q 563 235 571 240 q 564 243 557 247 q 537 251 521 251 q 510 251 510 248 q 510 119 557 43 q 572 18 605 -8 l 112 -8 q 142 7 189 69 q 221 111 262 178 q 278 205 295 233 q 290 239 273 239 q 232 239 115 206 q 64 192 14 179 q 54 222 94 322 q 141 440 141 537 q 141 575 134 604 q 128 634 112 663 l 406 663 q 403 663 371 619 q 327 559 298 498 q 255 407 240 315 q 239 311 239 303 q 239 277 254 260 q 268 244 287 244 q 301 244 309 259 q 381 411 414 511 q 439 587 439 629 q 439 649 434 656 q 430 664 425 663 z"},"~":{"x_min":0,"x_max":456,"ha":456,"o":"m 436 445 q 417 397 402 373 q 357 301 300 301 q 277 301 224 320 q 170 340 146 340 q 103 340 44 312 q 34 308 19 299 q 46 347 63 370 q 117 442 161 442 q 182 442 214 430 q 288 402 315 402 q 347 402 394 423 q 410 430 436 445 z"},"D":{"x_min":0,"x_max":787,"ha":787,"o":"m 761 340 q 761 198 657 95 q 553 -8 406 -8 q 397 -8 389 -8 q 377 -6 371 -6 q 288 1 185 1 q 127 1 86 0 q 46 -1 16 -3 q 20 -3 50 37 q 90 90 114 151 q 149 238 149 328 q 149 422 118 507 q 95 571 59 624 q 31 665 26 665 q 100 662 153 660 q 206 658 256 658 q 266 658 271 658 q 327 658 368 664 q 379 666 394 667 q 408 668 423 668 q 554 668 648 594 q 761 505 761 340 z m 461 -1 q 480 6 490 40 q 499 73 499 127 q 499 285 441 458 q 377 648 304 648 q 291 648 284 624 q 277 599 277 560 q 277 405 337 200 q 402 -22 461 -1 z"},"^":{"x_min":0,"x_max":424,"ha":424,"o":"m 407 393 l 212 436 l 3 393 q 81 433 151 488 q 174 506 206 536 q 240 506 264 487 q 339 428 407 393 z"},"0":{"x_min":0,"x_max":723,"ha":723,"o":"m 688 402 q 692 386 694 364 q 696 343 696 325 q 696 229 644 150 q 592 71 500 28 q 467 12 434 5 q 400 -2 364 -2 q 248 -2 152 70 q 56 141 31 253 q 22 292 22 331 q 22 430 77 511 q 132 592 228 635 q 291 662 356 662 q 473 662 568 589 q 664 516 688 402 z m 513 96 q 466 253 426 349 q 385 445 303 596 q 294 612 280 622 q 267 633 251 633 q 244 633 234 628 q 225 624 218 611 q 212 598 212 582 q 212 573 215 565 q 265 394 310 286 q 356 177 426 65 q 436 49 448 40 q 461 31 476 31 q 485 31 495 36 q 516 45 516 79 q 516 87 513 96 z"},"F":{"x_min":0,"x_max":582,"ha":582,"o":"m 559 672 q 544 636 537 606 q 515 515 515 391 q 515 334 520 275 q 524 216 534 145 q 512 210 491 276 q 437 430 392 521 q 326 653 281 653 q 273 653 266 649 q 246 639 246 591 q 246 538 270 452 q 290 380 316 320 q 322 322 328 324 q 349 351 349 412 q 349 453 336 508 q 351 473 367 438 q 392 377 435 268 q 454 220 473 173 q 435 220 415 243 q 352 312 333 305 q 327 303 327 292 q 327 248 392 146 q 463 35 525 0 l 19 0 q 80 65 109 146 q 134 217 134 298 q 134 388 104 483 q 83 550 47 619 q 19 672 16 672 z"},"`":{"x_min":0,"x_max":538,"ha":538,"o":"m 456 702 q 441 701 420 700 q 399 700 369 700 q 293 700 247 706 q 181 715 170 734 q 160 753 152 785 q 145 817 145 844 q 178 799 289 758 q 372 730 456 702 z"},"k":{"x_min":0,"x_max":589,"ha":589,"o":"m 579 80 q 571 39 499 10 q 437 -15 399 -11 q 335 -11 305 23 q 282 49 275 105 q 274 109 274 118 q 274 155 305 229 q 336 303 336 319 q 336 334 325 337 q 289 346 250 272 q 210 197 215 148 q 221 77 235 33 q 239 18 249 0 l 2 0 q 68 120 99 259 q 124 370 124 469 q 124 526 102 582 q 81 639 44 689 l 419 689 q 345 579 298 476 q 242 355 242 286 q 269 317 285 336 q 331 389 364 425 q 377 438 377 458 q 377 472 372 486 q 372 488 369 492 l 559 492 q 455 458 431 446 q 367 414 302 342 q 332 357 351 364 q 411 387 454 387 q 497 387 520 367 q 548 342 548 286 q 548 245 536 214 q 501 124 492 60 q 490 47 496 38 q 503 30 515 30 q 530 30 538 38 q 546 46 541 50 q 530 56 528 57 q 517 66 517 80 q 517 97 528 106 q 540 115 551 115 q 562 115 571 108 q 580 102 580 88 q 580 83 579 80 z"},"u":{"x_min":0,"x_max":635,"ha":635,"o":"m 625 496 q 573 424 544 334 q 515 245 515 168 q 515 110 530 72 q 546 33 589 0 l 308 0 q 328 43 338 69 q 371 151 379 206 q 363 183 348 160 q 305 90 261 46 q 197 -19 141 -19 q 80 -19 50 3 q 14 29 14 89 q 14 119 45 193 q 101 325 102 329 q 134 411 134 453 q 134 466 122 476 q 111 485 95 485 q 80 485 70 480 q 60 474 58 461 q 70 461 87 458 q 104 454 104 426 q 104 408 91 396 q 78 384 61 384 q 44 386 32 398 q 21 409 23 424 q 23 469 75 489 q 117 505 190 505 q 283 505 320 457 q 346 424 340 390 q 324 320 296 256 q 238 121 226 67 q 223 54 228 48 q 233 42 242 42 q 248 42 253 45 q 285 71 328 139 q 381 223 390 288 q 394 320 394 354 q 394 423 376 475 q 373 484 366 496 z"},"]":{"x_min":0,"x_max":402,"ha":402,"o":"m 373 -62 l 6 -103 q 54 -78 80 -62 q 158 -12 178 35 q 188 59 192 97 q 197 135 197 180 q 197 217 196 254 q 195 290 194 326 q 194 353 196 400 q 199 448 199 459 q 199 512 190 548 q 181 585 154 607 q 107 645 52 706 q 33 726 4 762 q 46 742 71 731 q 151 696 197 685 q 230 678 296 671 q 316 669 351 666 q 351 620 351 590 q 348 316 348 308 q 348 214 360 69 q 364 20 373 -62 z"},"U":{"x_min":0,"x_max":815,"ha":815,"o":"m 793 0 q 753 2 698 4 q 644 6 572 6 q 499 6 437 2 q 375 -1 335 -10 q 295 -18 259 -18 q 150 -18 77 52 q 15 112 15 178 q 15 186 16 190 q 28 281 91 352 q 145 403 201 458 q 257 513 257 577 q 257 598 242 616 q 226 635 196 650 q 184 656 167 659 q 150 662 135 662 q 115 662 115 656 q 127 645 137 634 q 147 622 147 608 q 147 582 128 566 q 110 549 87 549 q 62 549 44 566 q 27 584 27 610 q 27 640 59 656 q 91 672 130 672 l 525 672 q 453 585 374 374 q 295 162 295 55 q 295 -2 323 -2 q 332 -2 340 2 q 389 23 444 154 q 490 263 525 415 q 560 567 560 646 q 560 665 559 672 l 793 672 q 668 467 668 289 q 668 110 793 0 z"},"o":{"x_min":0,"x_max":539,"ha":539,"o":"m 518 247 q 518 171 484 116 q 449 62 380 25 q 327 -3 272 -3 q 174 -3 100 73 q 26 149 26 247 q 26 330 68 390 q 111 450 190 483 q 211 492 232 496 q 254 500 277 500 q 375 500 446 424 q 518 347 518 247 z m 353 19 q 367 23 367 61 q 367 156 306 316 q 242 484 196 477 q 183 476 183 437 q 183 336 240 177 q 302 4 353 19 z"},"N":{"x_min":0,"x_max":839,"ha":839,"o":"m 839 672 q 751 582 697 426 q 654 301 654 213 q 654 135 666 97 q 687 33 749 0 l 419 0 q 432 9 432 36 q 432 96 369 236 q 319 347 252 462 q 220 507 189 552 q 189 365 246 205 q 302 45 390 0 l 5 0 q 55 41 112 166 q 180 316 180 448 q 180 498 170 539 q 156 600 131 628 q 116 645 85 648 q 85 647 91 643 q 118 624 118 602 q 118 582 104 568 q 90 554 70 554 q 47 554 32 570 q 17 586 17 610 q 17 636 38 654 q 60 671 88 671 q 104 671 118 671 l 163 671 l 213 671 l 261 671 q 272 671 284 671 q 296 671 304 671 q 317 671 326 671 q 336 671 342 671 q 363 671 374 671 q 392 671 400 671 q 415 671 421 671 q 433 671 438 671 q 448 671 452 671 q 460 671 463 671 q 480 671 490 671 q 499 671 503 672 q 493 637 489 603 q 485 569 485 533 q 485 426 526 313 q 557 228 602 159 q 621 138 640 117 q 643 131 646 153 q 648 175 648 214 q 648 312 625 409 q 593 544 520 672 z"},"G":{"x_min":0,"x_max":704,"ha":704,"o":"m 694 668 q 691 668 670 631 q 641 580 624 524 q 599 441 599 353 q 576 392 553 432 q 496 522 441 579 q 365 658 304 658 q 285 658 275 634 q 265 611 265 571 q 265 420 351 227 q 444 17 541 17 q 568 17 568 49 q 568 105 518 181 q 460 270 371 315 q 382 316 402 317 q 423 318 432 318 q 460 318 475 316 q 490 314 500 314 q 510 313 521 313 q 553 313 572 314 q 590 316 599 318 q 599 230 608 170 q 624 66 668 5 q 624 4 572 3 q 521 2 472 -4 q 423 -11 387 -11 q 347 -11 312 -2 q 276 6 232 25 q 118 74 61 189 q 19 273 19 353 q 19 391 40 453 q 71 545 126 601 q 200 676 308 676 q 331 676 357 673 q 405 666 464 662 q 524 659 591 659 q 685 659 694 668 z"},"q":{"x_min":0,"x_max":610,"ha":610,"o":"m 886 -44 q 877 -45 823 -53 q 726 -67 663 -73 q 554 -84 486 -84 q 366 -84 259 -121 q 166 -162 148 -169 q 168 -144 179 -129 q 217 -78 234 -49 l 318 101 q 272 39 241 21 q 210 3 169 3 q 107 3 63 62 q 19 122 19 217 q 19 315 73 387 q 138 473 252 473 q 296 473 327 466 q 358 460 390 453 q 411 451 443 450 q 475 449 502 449 q 512 449 516 449 q 524 449 528 449 q 544 449 554 449 q 565 449 572 450 q 569 450 548 409 q 523 361 504 300 q 479 219 479 148 q 479 50 630 -5 q 743 -46 858 -46 q 866 -46 874 -46 q 883 -44 886 -44 z m 379 443 q 343 458 282 314 q 220 171 220 85 q 220 44 239 41 q 282 31 339 168 q 396 304 396 394 q 396 436 379 443 z"},"d":{"x_min":0,"x_max":655,"ha":655,"o":"m 649 672 q 583 591 552 493 q 526 409 526 312 q 526 205 558 104 q 584 22 611 -7 q 596 -6 586 -5 q 514 2 489 2 q 462 2 432 1 q 402 0 377 -2 q 318 -16 272 -16 q 152 -16 83 61 q 18 133 18 246 q 18 319 48 376 q 79 434 137 467 q 155 477 176 482 q 196 488 212 488 q 282 488 336 407 q 354 380 376 326 q 376 439 353 526 q 337 586 308 637 q 288 672 284 672 z m 387 12 q 412 12 412 74 q 412 173 366 307 q 317 449 276 441 q 255 437 255 377 q 255 277 300 142 q 344 8 387 12 z"},"1":{"x_min":0,"x_max":507,"ha":507,"o":"m 478 -4 l 31 -4 q 64 38 83 63 q 140 140 165 193 q 208 283 208 284 q 233 341 257 454 q 258 462 256 473 q 255 484 243 490 q 237 494 228 491 q 219 488 211 484 l 74 423 l 473 653 q 471 653 450 610 q 420 549 405 491 q 381 400 381 307 q 381 208 404 139 q 423 82 478 -4 z"},"5":{"x_min":0,"x_max":596,"ha":596,"o":"m 573 178 q 573 70 491 24 q 436 -7 349 -7 q 330 -7 318 -6 q 306 -5 298 -3 q 258 4 218 7 q 177 10 146 10 q 100 10 64 5 q 28 0 1 -3 q 8 -3 26 23 q 55 64 73 134 q 98 233 98 379 q 107 355 117 332 q 145 255 171 197 q 211 107 251 53 q 270 28 280 18 q 296 3 309 3 q 318 3 326 8 q 334 13 338 24 q 342 34 342 47 q 342 71 334 98 q 306 194 245 277 q 202 336 144 385 q 102 421 96 421 l 96 672 l 526 670 q 519 654 512 638 q 502 606 502 559 q 502 524 508 480 q 513 437 526 376 q 505 406 485 436 q 429 509 364 560 q 270 634 166 658 q 140 664 127 664 q 103 664 103 648 q 103 638 110 626 q 117 615 127 603 q 164 565 249 516 q 321 475 394 435 q 474 388 501 353 q 539 309 558 256 q 573 214 573 178 z"}}}
